PathFileType	4	(X/Y/Z)	C:/Users/beibeiliu/ov580/test_trc/capture2\sequence.3_training_dense_right.trc
DataRate	CameraRate	NumFrames	NumMarkers	Units	OrigDataRate	OrigDataStartFrame	OrigNumFrames
120	120	22	19	mm	120	44	350
Frame#	Time	ThumbCMC			ThumbMCP			ThumbIP			ThumbTip			IndexMCP			IndexPIP			IndexTip			MiddleMCP			MiddlePIP			MiddleTip			RingMCP			RingPIP			RingTip			PinkyMCP			PinkyPIP			PinkyTip			BackHand1			BackHand2			BackHand3	
		X0	Y0	Z0	X1	Y1	Z1	X2	Y2	Z2	X3	Y3	Z3	X4	Y4	Z4	X5	Y5	Z5	X6	Y6	Z6	X7	Y7	Z7	X8	Y8	Z8	X9	Y9	Z9	X10	Y10	Z10	X11	Y11	Z11	X12	Y12	Z12	X13	Y13	Z13	X14	Y14	Z14	X15	Y15	Z15	X16	Y16	Z16	X17	Y17	Z17	X18	Y18	Z18	
43	0.358333	191.68	41.538	-13.5935	182.032	51.6457	-40.2121	175.083	47.1095	-67.6036	161.334	25.8889	-76.0308	186.36	23.5763	-82.9817	159.151	44.2973	-92.1077	146.956	51.1575	-64.6432	171.753	11.3039	-83.8158	146.549	32.3516	-81.9866	151.06	33.5864	-46.3239	156.226	1.21726	-77.2415	137.539	23.493	-61.9132	152.123	16.8959	-34.3466	142.868	-10.4032	-67.2604	132.433	12.4198	-51.5867	151.356	8.22217	-25.8926	185.229	-20.5726	-31.2362	185.764	-19.894	-3.91502	201.04	3.98958	-18.2947	
44	0.366667	191.041	39.0296	-15.9411	184.687	53.7125	-38.3265	179.456	53.3434	-66.1644	163.556	32.5646	-77.1653	187.331	27.8202	-87.9963	164.102	44.0027	-95.4378	147.641	48.6293	-64.3234	170.974	15.1789	-86.3049	144.786	31.7399	-81.229	152.577	34.3949	-45.5445	152.667	5.4909	-78.1165	137.914	26.3584	-61.5908	154.156	18.9276	-35.2308	146.355	-5.89663	-65.108	132.79	14.5795	-49.2668	154.605	12.3736	-29.1221	185.433	-20.8303	-35.5677	184.142	-17.6551	-0.554452	203.162	7.13282	-18.446	
45	0.375	192.565	42.5338	-16.334	183.843	59.6107	-41.5417	177.288	63.0097	-68.9359	158.005	38.8732	-79.2504	191.711	25.2924	-85.0732	169.377	45.7268	-97.2024	157.148	51.1319	-64.3009	173.289	17.9645	-86.5222	149.179	37.2018	-84.3664	152.958	36.5901	-45.6844	157.461	6.9792	-76.4488	139.349	29.2532	-62.6381	156.434	23.2822	-35.2637	142.539	-3.11142	-67.1852	134.118	18.185	-53.4932	152.994	12.6551	-25.0003	185.124	-15.5449	-33.4376	184.034	-18.2959	-0.0766169	205.755	10.2924	-22.2126	
46	0.383333	195.928	48.0342	-16.6024	189.32	58.5069	-42.8697	181.851	55.2736	-74.1683	164.527	34.5569	-74.5513	190.74	34.7373	-86.2204	164.762	49.8084	-95.1894	153.037	57.2519	-61.8355	172.691	21.2565	-86.8412	148.664	42.8476	-84.0067	151.762	43.0261	-47.6945	157.882	12.1726	-78.1087	140.126	34.655	-63.8422	157.8	27.4665	-36.7164	141.191	1.88734	-69.1102	133.406	23.3708	-48.1968	155.221	18.6494	-29.4566	180.998	-14.8741	-38.0331	184.064	-14.4495	-6.28517	203.576	10.5153	-22.6162	
47	0.391667	194.036	48.3838	-14.4375	190.511	62.6278	-46.8112	180.783	54.2575	-73.4701	162.41	29.1764	-69.077	190.55	39.6289	-86.1803	161.479	54.838	-93.4272	153.077	67.0519	-64.4835	170.002	24.6457	-89.3065	147.105	48.0476	-83.031	153.248	51.1139	-46.9653	157.023	15.433	-79.5708	137.84	37.4451	-63.272	156.063	32.1744	-38.2263	143.661	6.74452	-69.3208	136.036	28.7307	-53.6023	154.885	23.7926	-29.6906	182.916	-12.0454	-36.3511	185.904	-8.18939	-3.95615	204.585	15.3617	-20.4326	
48	0.4	194.798	55.6013	-16.3638	189.514	68.6871	-47.0353	177.756	55.1858	-74.3619	161.522	34.1086	-71.1222	185.273	44.9461	-90.8532	165.057	63.4079	-94.8791	150.92	68.8462	-64.1707	169.916	30.1442	-90.079	148.583	52.5871	-85.3941	151.319	55.9826	-48.1354	158.365	22.435	-82.3131	138.46	41.3175	-69.5233	157.213	33.6465	-37.3916	144.946	9.4122	-69.6366	131.458	30.19	-52.0957	154.248	26.9909	-30.7006	183.021	-6.1681	-35.9741	185.277	-5.74154	-7.80876	205.219	20.3202	-22.7458	
49	0.408333	192.416	59.8385	-18.7219	187.101	70.9192	-50.44	176.688	63.2243	-73.5354	160.336	36.8443	-69.2799	185.885	50.3596	-88.1188	158.924	69.0827	-90.8838	151.1	74.0142	-59.496	174.937	37.748	-88.605	143.954	55.806	-83.4444	148.506	59.5948	-49.9007	155.071	26.0228	-83.3722	139.307	47.4847	-70.667	155.878	40.9868	-38.1091	148.645	15.3964	-70.5223	132.423	33.7263	-52.7048	153.323	31.7037	-30.4204	185.168	0.314619	-39.8348	186.522	4.07656	-9.40779	205.868	26.5445	-23.5067	
50	0.416667	193.146	70.4524	-21.3436	185.243	81.835	-50.5838	175.582	70.1372	-73.7189	159.64	41.6447	-70.9929	186.117	60.567	-91.5833	159.074	77.1913	-93.8007	148.607	81.3401	-62.9373	171.182	47.2375	-93.0541	147.406	63.8909	-87.3897	146.04	62.0823	-49.5845	155.297	31.9411	-84.4347	137.018	51.4336	-70.7757	153.904	45.4364	-38.4794	147.404	22.9545	-71.4883	135.688	42.9135	-54.6614	153.38	32.4325	-29.768	188.198	10.2103	-44.0009	189.443	10.0537	-11.8916	204.178	34.3194	-24.0847	
51	0.425	192.319	79.5886	-19.1039	184.98	85.9437	-51.854	174.121	75.9671	-73.3894	159.503	50.092	-70.6337	185.859	65.7259	-90.5937	159.561	81.5112	-95.259	148.583	91.0097	-63.6914	173.037	52.1063	-91.3553	146.511	70.9832	-89.3501	148.308	74.6984	-50.0665	154.867	38.4249	-84.7577	138.072	62.2913	-68.8109	153.506	53.5147	-39.2778	146.179	32.0761	-73.1631	131.764	46.4166	-54.812	157.066	41.0084	-30.1446	187.482	17.1257	-45.2618	186.476	14.8132	-11.6573	206.434	43.0769	-26.5613	
52	0.433333	193.392	86.2481	-21.9284	183.951	96.7713	-52.9645	172.62	82.2893	-74.9978	158.27	59.8658	-73.5583	181.562	76.3528	-93.6062	157.576	95.2141	-94.1984	147.555	95.2394	-60.053	169.244	61.4211	-95.0499	146.582	81.4496	-89.2688	145.544	79.7288	-51.1447	154.546	51.9445	-86.8445	136.735	69.1901	-70.6233	153.293	62.3133	-40.2512	146.741	39.9052	-74.0701	133.773	58.2145	-55.4804	155.036	51.3474	-32.0205	185.605	23.0034	-45.5639	187.652	26.8798	-10.8606	203.333	49.7181	-28.7578	
53	0.441667	193.215	94.0422	-21.7384	185.279	107.076	-52.9703	173.182	95.1429	-74.9441	156.543	66.4115	-71.8445	184.052	85.4293	-91.9425	158.128	100.551	-95.2426	146.435	103.564	-63.9536	171.825	72.9928	-94.0445	142.52	91.1137	-86.4426	143.955	89.0073	-51.2855	152.014	60.585	-88.2588	134.873	77.6686	-71.3962	155.74	74.2068	-42.2409	144.571	47.3798	-75.1412	130.435	64.7238	-55.9532	153.455	62.6886	-33.0739	185.756	31.8721	-44.6892	187.665	33.9519	-13.8689	206.624	59.6008	-30.3946	
54	0.45	191.137	100.531	-21.9564	184.628	114.401	-49.5726	172.942	101.891	-75.9845	158.132	80.9498	-73.0084	180.049	97.0795	-94.6681	155.088	115.148	-91.5523	146.004	115.52	-62.3167	168.815	84.1484	-95.5091	142.511	102.306	-84.9562	145.622	102.481	-51.9752	153.334	73.6904	-87.973	133.739	86.9207	-70.7016	151.775	82.7805	-42.636	142.93	61.5176	-76.7257	133.285	76.7964	-54.6286	157.223	66.7937	-32.0346	185.642	44.5528	-49.4208	185.925	41.712	-15.2882	206.288	68.4267	-34.2295	
55	0.458333	191.022	108.164	-23.332	185.587	120.875	-51.5457	173.538	113.962	-74.3815	157.059	88.5775	-71.1135	181.194	109.183	-93.3683	154.696	123.066	-91.115	145.188	124.127	-61.7609	168.081	93.5205	-95.2247	143.078	111.39	-86.1459	147.202	107.348	-48.3178	152.402	79.1679	-87.8896	137.483	100.667	-68.4113	152.301	87.8057	-40.8941	144.534	69.3294	-77.0374	131.123	84.346	-53.4636	155.391	78.5667	-33.8621	185.281	51.4432	-51.5813	185.341	50.8307	-16.6767	206.092	79.4621	-34.4968	
56	0.466667	191.805	117.269	-23.4402	183.621	133.936	-50.3098	172.234	125.136	-74.2179	156.515	103.017	-77.1869	179.564	117.731	-93.0104	156.851	134.012	-90.7084	147.968	130.677	-56.4993	168.691	102.76	-94.6853	142.512	117.727	-86.5727	147.771	114.816	-49.6181	155.079	91.0609	-86.8373	133.417	105.272	-67.2147	151.375	94.6225	-41.3709	145.936	79.9529	-77.2482	130.099	91.8564	-54.5165	153.272	80.6787	-33.8676	184.039	59.7382	-49.7134	186.829	58.5179	-18.4069	203.692	85.248	-34.8427	
57	0.475	189.411	126.824	-23.4069	173.383	147.285	-48.7266	159.854	150.378	-74.7188	148.324	128.981	-81.3733	183.626	126.709	-90.5069	155.536	138.654	-84.2729	160.289	125.202	-52.6685	167.712	107.843	-93.9739	143.215	125.851	-81.2743	151.643	116.334	-48.5045	153.497	94.9566	-86.7057	135.077	112.081	-68.1859	155.959	104.331	-41.0398	142.247	85.6461	-78.8457	133.242	101.225	-57.1008	156.109	89.8523	-32.686	186.915	68.431	-49.1775	186.101	64.5706	-20.6676	203.746	90.8286	-34.2138	
58	0.483333	188.5	130.953	-24.7886	171.038	153.026	-42.6609	159.713	160.363	-67.3764	145.542	138.187	-83.8265	181.766	130.464	-88.5944	156.484	146.152	-78.8723	164.717	131.133	-51.0189	169.268	113.102	-91.922	141.532	128.353	-77.9677	157.495	121.913	-44.7365	156.22	103.978	-86.0196	135.294	115.245	-64.8376	154.018	108.07	-40.3865	143.632	89.125	-78.3725	131.62	104.747	-56.0052	151.889	95.7253	-31.0509	183.714	71.208	-47.891	185.815	68.1703	-15.2699	204.05	95.7329	-31.2248	
59	0.491667	186.835	132.599	-22.6458	171.213	158.009	-41.8019	158.234	157.017	-67.7233	145.572	143.843	-82.966	182.692	137.14	-87.2061	155.775	147.297	-80.1843	164.232	130.461	-51.2269	165.838	119.32	-92.3604	141.673	133.201	-77.5074	153.286	124.189	-45.4081	152.462	105.454	-86.7678	133.54	118.991	-64.9639	151.982	108.292	-39.4971	143.909	90.3367	-78.4817	129.179	106.207	-56.8253	149.528	100.888	-34.0365	184.414	76.3097	-52.4841	186.208	70.8382	-16.3492	203.621	97.4946	-30.5046	
60	0.5	187.641	135.512	-19.1684	171.171	153.572	-40.7804	159.299	161.145	-65.6852	144.626	146.105	-85.3603	179.055	136.315	-90.0346	155.117	149.649	-76.4951	166.763	134.886	-48.41	169.119	119.678	-91.0962	144.014	136.934	-79.3057	155.433	121.627	-43.1264	149.147	107.901	-87.1628	133.774	119.507	-65.5646	152.67	108.529	-39.2053	141.946	90.7252	-78.0346	132.917	110.449	-56.145	146.78	99.7039	-31.7587	183.758	74.1489	-51.698	185.467	70.2663	-18.4702	203.503	98.2962	-34.2249	
61	0.508333	186.666	132.857	-22.9162	170.31	156.637	-38.7721	157.711	161.655	-66.1852	145.539	142.922	-81.6305	181.66	133.935	-87.2768	152.16	144.223	-78.4941	163.018	134.891	-50.7238	165.721	114.433	-90.3505	141.613	134.487	-77.2352	153.278	124.201	-44.5918	152.413	106.611	-85.8655	133.237	118.997	-68.2093	149.534	108.145	-38.9409	143.089	93.1256	-78.1894	128.483	104.713	-58.1839	151.249	99.1359	-30.6488	182.295	73.3734	-52.7722	184.861	68.7229	-19.9307	203.743	99.7105	-32.6719	
62	0.516667	185.919	129.098	-21.505	168.43	149.446	-40.0117	156.057	154.656	-68.9982	143.869	138.378	-84.6317	178.15	126.748	-87.9087	151.231	138.048	-82.3195	162.127	129.105	-49.9644	161.494	113.07	-93.5565	139.858	128.016	-77.7875	152.514	114.968	-43.3235	150.557	97.0829	-86.2786	133.176	114.775	-64.9455	152.333	101.708	-37.6601	141.37	82.7909	-79.1324	129.156	100.332	-56.7503	150.351	94.9186	-32.8749	183.469	69.1211	-50.0592	184.376	62.2377	-17.9249	200.196	94.3901	-34.2436	
63	0.525	184.046	123.537	-23.527	167.194	142.239	-42.4292	155.65	148.667	-68.1781	141.155	129.242	-87.3655	175.505	119.377	-89.0163	149.742	135.794	-79.2117	161.212	117.765	-51.6754	161.819	103.535	-91.8113	138.103	117.929	-80.2858	151.046	105.873	-42.5173	150.042	88.3362	-86.478	129.946	102.448	-67.3219	147.226	94.6146	-40.2943	141.377	74.9484	-78.8804	128.661	91.946	-60.6296	145.29	86.9531	-31.8783	184.355	61.679	-53.4292	184.302	57.8815	-17.2283	200.162	90.3862	-34.0734	
64	0.533333	182.562	112.319	-18.9877	166.812	134.988	-44.9262	154.492	140.354	-66.4974	141.609	119.339	-86.4769	178.182	113.151	-88.7432	148.573	125.346	-78.6996	159.773	109.153	-51.9493	163.482	97.1877	-92.2941	136.304	106.52	-79.9074	148.277	101.437	-45.3452	150.064	79.9002	-87.3222	128.095	93.2647	-64.9542	145.679	87.9302	-41.0663	142.202	67.3148	-78.788	126.92	82.2934	-58.1356	142.643	76.0691	-30.8367	182.436	51.9677	-53.493	184.366	48.3972	-18.3625	198.613	79.2046	-32.3555	
